<svg width="80" height="80" viewBox="0 0 168 168" xmlns="http://www.w3.org/2000/svg">
    <circle cx="84" cy="84" r="84" fill="#1ED760"/>
    <path d="M122.9 114.5c-1.9 3.1-6 4-9.1 2.1-24.9-15.2-56.3-18.7-93.2-10.4-3.6.8-7.3-1.4-8.1-5.1-.8-3.6 1.4-7.3 5.1-8.1 41-9.2 76.5-5.2 104.1 12.1 3.1 2 4 6.1 2.1 9.4zm11.8-26.3c-2.4 3.9-7.5 5.2-11.4 2.8-28.5-17.5-71.9-22.5-105.2-12.4-4.4 1.3-9-1.2-10.3-5.6-1.3-4.4 1.2-9 5.6-10.3 39.8-11.5 89.2-6.1 122.8 14.7 4 2.4 5.3 7.6 2.9 11.1zm1.3-27.2C102.8 39.1 49.6 37.1 16.3 46.5c-5 .9-9.8-1.9-11-6.8-1.2-5 1.9-9.8 6.8-11 38.7-10.8 99.3-8.5 138.3 16.4 4.3 2.6 5.7 8.3 3.1 12.6-2.6 4.3-8.3 5.7-12.6 3.1z" fill="#000"/>
  </svg>